<mxfile host="app.diagrams.net" modified="2024-03-23T22:58:17.199Z" agent="Mozilla/5.0 (Windows NT 10.0; Win64; x64) AppleWebKit/537.36 (KHTML, like Gecko) Chrome/122.0.0.0 Safari/537.36" etag="Foxz02uFdn7_FxGkVsX9" version="24.0.7" type="device">
  <diagram name="Page-1" id="1EUCfQEz0xHuY7cJnvJP">
    <mxGraphModel dx="3641" dy="2680" grid="1" gridSize="10" guides="1" tooltips="1" connect="1" arrows="1" fold="1" page="1" pageScale="1" pageWidth="850" pageHeight="1100" math="0" shadow="0">
      <root>
        <mxCell id="0" />
        <mxCell id="1" parent="0" />
        <mxCell id="bkhA54zJ3EP0dmLcbxtn-2" value="" style="rounded=0;whiteSpace=wrap;html=1;" vertex="1" parent="1">
          <mxGeometry x="-427.5" y="-580" width="1842.5" height="975" as="geometry" />
        </mxCell>
        <mxCell id="bkhA54zJ3EP0dmLcbxtn-3" value="Discount" style="swimlane;fontStyle=2;align=center;verticalAlign=top;childLayout=stackLayout;horizontal=1;startSize=26;horizontalStack=0;resizeParent=1;resizeLast=0;collapsible=1;marginBottom=0;rounded=0;shadow=0;strokeWidth=1;" vertex="1" parent="1">
          <mxGeometry x="395" y="-220" width="315" height="210" as="geometry">
            <mxRectangle x="150" y="120" width="160" height="26" as="alternateBounds" />
          </mxGeometry>
        </mxCell>
        <mxCell id="bkhA54zJ3EP0dmLcbxtn-4" value="- description: String" style="text;align=left;verticalAlign=top;spacingLeft=4;spacingRight=4;overflow=hidden;rotatable=0;points=[[0,0.5],[1,0.5]];portConstraint=eastwest;" vertex="1" parent="bkhA54zJ3EP0dmLcbxtn-3">
          <mxGeometry y="26" width="315" height="18" as="geometry" />
        </mxCell>
        <mxCell id="bkhA54zJ3EP0dmLcbxtn-5" value="- minimumTenureInDays: Integer" style="text;align=left;verticalAlign=top;spacingLeft=4;spacingRight=4;overflow=hidden;rotatable=0;points=[[0,0.5],[1,0.5]];portConstraint=eastwest;rounded=0;shadow=0;html=0;" vertex="1" parent="bkhA54zJ3EP0dmLcbxtn-3">
          <mxGeometry y="44" width="315" height="18" as="geometry" />
        </mxCell>
        <mxCell id="bkhA54zJ3EP0dmLcbxtn-6" value="- isActive: Boolean" style="text;align=left;verticalAlign=top;spacingLeft=4;spacingRight=4;overflow=hidden;rotatable=0;points=[[0,0.5],[1,0.5]];portConstraint=eastwest;rounded=0;shadow=0;html=0;" vertex="1" parent="bkhA54zJ3EP0dmLcbxtn-3">
          <mxGeometry y="62" width="315" height="18" as="geometry" />
        </mxCell>
        <mxCell id="bkhA54zJ3EP0dmLcbxtn-7" value="- categoriesNotApplicable: List&lt;Category&gt;" style="text;align=left;verticalAlign=top;spacingLeft=4;spacingRight=4;overflow=hidden;rotatable=0;points=[[0,0.5],[1,0.5]];portConstraint=eastwest;" vertex="1" parent="bkhA54zJ3EP0dmLcbxtn-3">
          <mxGeometry y="80" width="315" height="20" as="geometry" />
        </mxCell>
        <mxCell id="bkhA54zJ3EP0dmLcbxtn-8" value="- rolesApplicable: List&lt;Role&gt;" style="text;align=left;verticalAlign=top;spacingLeft=4;spacingRight=4;overflow=hidden;rotatable=0;points=[[0,0.5],[1,0.5]];portConstraint=eastwest;rounded=0;shadow=0;html=0;" vertex="1" parent="bkhA54zJ3EP0dmLcbxtn-3">
          <mxGeometry y="100" width="315" height="20" as="geometry" />
        </mxCell>
        <mxCell id="bkhA54zJ3EP0dmLcbxtn-9" value="" style="line;html=1;strokeWidth=1;align=left;verticalAlign=middle;spacingTop=-1;spacingLeft=3;spacingRight=3;rotatable=0;labelPosition=right;points=[];portConstraint=eastwest;" vertex="1" parent="bkhA54zJ3EP0dmLcbxtn-3">
          <mxGeometry y="120" width="315" height="31" as="geometry" />
        </mxCell>
        <mxCell id="bkhA54zJ3EP0dmLcbxtn-10" value="&lt;span style=&quot;color: rgb(0, 0, 0); font-family: Helvetica; font-size: 12px; font-style: normal; font-variant-ligatures: normal; font-variant-caps: normal; font-weight: 400; letter-spacing: normal; orphans: 2; text-align: left; text-indent: 0px; text-transform: none; widows: 2; word-spacing: 0px; -webkit-text-stroke-width: 0px; white-space: nowrap; background-color: rgb(251, 251, 251); text-decoration-thickness: initial; text-decoration-style: initial; text-decoration-color: initial; display: inline !important; float: none;&quot;&gt;+ isCategoryNotApplicable(category: Category): Boolean&lt;/span&gt;" style="text;whiteSpace=wrap;html=1;" vertex="1" parent="bkhA54zJ3EP0dmLcbxtn-3">
          <mxGeometry y="151" width="315" height="29" as="geometry" />
        </mxCell>
        <mxCell id="bkhA54zJ3EP0dmLcbxtn-11" value="&lt;span style=&quot;color: rgb(0, 0, 0); font-family: Helvetica; font-size: 12px; font-style: normal; font-variant-ligatures: normal; font-variant-caps: normal; font-weight: 400; letter-spacing: normal; orphans: 2; text-align: left; text-indent: 0px; text-transform: none; widows: 2; word-spacing: 0px; -webkit-text-stroke-width: 0px; white-space: nowrap; background-color: rgb(251, 251, 251); text-decoration-thickness: initial; text-decoration-style: initial; text-decoration-color: initial; display: inline !important; float: none;&quot;&gt;+ accessors&lt;/span&gt;" style="text;whiteSpace=wrap;html=1;" vertex="1" parent="bkhA54zJ3EP0dmLcbxtn-3">
          <mxGeometry y="180" width="315" height="30" as="geometry" />
        </mxCell>
        <mxCell id="bkhA54zJ3EP0dmLcbxtn-12" value="" style="endArrow=block;endSize=10;endFill=0;shadow=0;strokeWidth=1;rounded=0;curved=0;edgeStyle=elbowEdgeStyle;elbow=vertical;exitX=0.5;exitY=0;exitDx=0;exitDy=0;entryX=0.449;entryY=1.081;entryDx=0;entryDy=0;entryPerimeter=0;" edge="1" parent="1" target="bkhA54zJ3EP0dmLcbxtn-11">
          <mxGeometry width="160" relative="1" as="geometry">
            <mxPoint x="360" y="164.01" as="sourcePoint" />
            <mxPoint x="540" y="-25" as="targetPoint" />
            <Array as="points">
              <mxPoint x="530" y="74.00999999999999" />
            </Array>
          </mxGeometry>
        </mxCell>
        <mxCell id="bkhA54zJ3EP0dmLcbxtn-13" value="Category" style="swimlane;fontStyle=0;align=center;verticalAlign=top;childLayout=stackLayout;horizontal=1;startSize=26;horizontalStack=0;resizeParent=1;resizeLast=0;collapsible=1;marginBottom=0;rounded=0;shadow=0;strokeWidth=1;" vertex="1" parent="1">
          <mxGeometry x="907" y="-168" width="212.9" height="88" as="geometry">
            <mxRectangle x="550" y="140" width="160" height="26" as="alternateBounds" />
          </mxGeometry>
        </mxCell>
        <mxCell id="bkhA54zJ3EP0dmLcbxtn-14" value="- name: String" style="text;align=left;verticalAlign=top;spacingLeft=4;spacingRight=4;overflow=hidden;rotatable=0;points=[[0,0.5],[1,0.5]];portConstraint=eastwest;" vertex="1" parent="bkhA54zJ3EP0dmLcbxtn-13">
          <mxGeometry y="26" width="212.9" height="26" as="geometry" />
        </mxCell>
        <mxCell id="bkhA54zJ3EP0dmLcbxtn-15" value="" style="line;html=1;strokeWidth=1;align=left;verticalAlign=middle;spacingTop=-1;spacingLeft=3;spacingRight=3;rotatable=0;labelPosition=right;points=[];portConstraint=eastwest;" vertex="1" parent="bkhA54zJ3EP0dmLcbxtn-13">
          <mxGeometry y="52" width="212.9" height="8" as="geometry" />
        </mxCell>
        <mxCell id="bkhA54zJ3EP0dmLcbxtn-16" value="&lt;span style=&quot;color: rgb(0, 0, 0); font-family: Helvetica; font-size: 12px; font-style: normal; font-variant-ligatures: normal; font-variant-caps: normal; font-weight: 400; letter-spacing: normal; orphans: 2; text-align: left; text-indent: 0px; text-transform: none; widows: 2; word-spacing: 0px; -webkit-text-stroke-width: 0px; white-space: nowrap; background-color: rgb(251, 251, 251); text-decoration-thickness: initial; text-decoration-style: initial; text-decoration-color: initial; display: inline !important; float: none;&quot;&gt;+ accessors&lt;/span&gt;" style="text;whiteSpace=wrap;html=1;" vertex="1" parent="bkhA54zJ3EP0dmLcbxtn-13">
          <mxGeometry y="60" width="212.9" height="28" as="geometry" />
        </mxCell>
        <mxCell id="bkhA54zJ3EP0dmLcbxtn-17" value="- categoriesNotApplicable" style="text;align=left;verticalAlign=top;spacingLeft=4;spacingRight=4;overflow=hidden;rotatable=0;points=[[0,0.5],[1,0.5]];portConstraint=eastwest;rounded=0;shadow=0;html=0;" vertex="1" parent="1">
          <mxGeometry x="750" y="-100" width="150" height="30" as="geometry" />
        </mxCell>
        <mxCell id="bkhA54zJ3EP0dmLcbxtn-18" value="VolumeDiscount" style="swimlane;fontStyle=2;align=center;verticalAlign=top;childLayout=stackLayout;horizontal=1;startSize=26;horizontalStack=0;resizeParent=1;resizeLast=0;collapsible=1;marginBottom=0;rounded=0;shadow=0;strokeWidth=1;" vertex="1" parent="1">
          <mxGeometry x="210" y="164.01" width="320" height="135" as="geometry">
            <mxRectangle x="150" y="120" width="160" height="26" as="alternateBounds" />
          </mxGeometry>
        </mxCell>
        <mxCell id="bkhA54zJ3EP0dmLcbxtn-19" value="- priceThreshold: Double" style="text;align=left;verticalAlign=top;spacingLeft=4;spacingRight=4;overflow=hidden;rotatable=0;points=[[0,0.5],[1,0.5]];portConstraint=eastwest;" vertex="1" parent="bkhA54zJ3EP0dmLcbxtn-18">
          <mxGeometry y="26" width="320" height="18" as="geometry" />
        </mxCell>
        <mxCell id="bkhA54zJ3EP0dmLcbxtn-20" value="- discountAmount: Double" style="text;align=left;verticalAlign=top;spacingLeft=4;spacingRight=4;overflow=hidden;rotatable=0;points=[[0,0.5],[1,0.5]];portConstraint=eastwest;" vertex="1" parent="bkhA54zJ3EP0dmLcbxtn-18">
          <mxGeometry y="44" width="320" height="18" as="geometry" />
        </mxCell>
        <mxCell id="bkhA54zJ3EP0dmLcbxtn-21" value="- derivedRate: Double" style="text;align=left;verticalAlign=top;spacingLeft=4;spacingRight=4;overflow=hidden;rotatable=0;points=[[0,0.5],[1,0.5]];portConstraint=eastwest;" vertex="1" parent="bkhA54zJ3EP0dmLcbxtn-18">
          <mxGeometry y="62" width="320" height="18" as="geometry" />
        </mxCell>
        <mxCell id="bkhA54zJ3EP0dmLcbxtn-22" value="" style="line;html=1;strokeWidth=1;align=left;verticalAlign=middle;spacingTop=-1;spacingLeft=3;spacingRight=3;rotatable=0;labelPosition=right;points=[];portConstraint=eastwest;" vertex="1" parent="bkhA54zJ3EP0dmLcbxtn-18">
          <mxGeometry y="80" width="320" height="16" as="geometry" />
        </mxCell>
        <mxCell id="bkhA54zJ3EP0dmLcbxtn-23" value="&lt;span style=&quot;color: rgb(0, 0, 0); font-family: Helvetica; font-size: 12px; font-style: normal; font-variant-ligatures: normal; font-variant-caps: normal; font-weight: 400; letter-spacing: normal; orphans: 2; text-align: left; text-indent: 0px; text-transform: none; widows: 2; word-spacing: 0px; -webkit-text-stroke-width: 0px; white-space: nowrap; background-color: rgb(251, 251, 251); text-decoration-thickness: initial; text-decoration-style: initial; text-decoration-color: initial; display: inline !important; float: none;&quot;&gt;+ accessors&lt;/span&gt;" style="text;whiteSpace=wrap;html=1;" vertex="1" parent="bkhA54zJ3EP0dmLcbxtn-18">
          <mxGeometry y="96" width="320" height="39" as="geometry" />
        </mxCell>
        <mxCell id="bkhA54zJ3EP0dmLcbxtn-24" value="PercentageDiscount" style="swimlane;fontStyle=2;align=center;verticalAlign=top;childLayout=stackLayout;horizontal=1;startSize=26;horizontalStack=0;resizeParent=1;resizeLast=0;collapsible=1;marginBottom=0;rounded=0;shadow=0;strokeWidth=1;" vertex="1" parent="1">
          <mxGeometry x="590" y="164.01" width="320" height="90" as="geometry">
            <mxRectangle x="150" y="120" width="160" height="26" as="alternateBounds" />
          </mxGeometry>
        </mxCell>
        <mxCell id="bkhA54zJ3EP0dmLcbxtn-25" value="- discountRate: Double" style="text;align=left;verticalAlign=top;spacingLeft=4;spacingRight=4;overflow=hidden;rotatable=0;points=[[0,0.5],[1,0.5]];portConstraint=eastwest;" vertex="1" parent="bkhA54zJ3EP0dmLcbxtn-24">
          <mxGeometry y="26" width="320" height="18" as="geometry" />
        </mxCell>
        <mxCell id="bkhA54zJ3EP0dmLcbxtn-26" value="" style="line;html=1;strokeWidth=1;align=left;verticalAlign=middle;spacingTop=-1;spacingLeft=3;spacingRight=3;rotatable=0;labelPosition=right;points=[];portConstraint=eastwest;" vertex="1" parent="bkhA54zJ3EP0dmLcbxtn-24">
          <mxGeometry y="44" width="320" height="16" as="geometry" />
        </mxCell>
        <mxCell id="bkhA54zJ3EP0dmLcbxtn-27" value="&lt;span style=&quot;color: rgb(0, 0, 0); font-family: Helvetica; font-size: 12px; font-style: normal; font-variant-ligatures: normal; font-variant-caps: normal; font-weight: 400; letter-spacing: normal; orphans: 2; text-align: left; text-indent: 0px; text-transform: none; widows: 2; word-spacing: 0px; -webkit-text-stroke-width: 0px; white-space: nowrap; background-color: rgb(251, 251, 251); text-decoration-thickness: initial; text-decoration-style: initial; text-decoration-color: initial; display: inline !important; float: none;&quot;&gt;+ accessors&lt;/span&gt;" style="text;whiteSpace=wrap;html=1;" vertex="1" parent="bkhA54zJ3EP0dmLcbxtn-24">
          <mxGeometry y="60" width="320" height="30" as="geometry" />
        </mxCell>
        <mxCell id="bkhA54zJ3EP0dmLcbxtn-28" value="Role" style="swimlane;fontStyle=0;align=center;verticalAlign=top;childLayout=stackLayout;horizontal=1;startSize=26;horizontalStack=0;resizeParent=1;resizeLast=0;collapsible=1;marginBottom=0;rounded=0;shadow=0;strokeWidth=1;" vertex="1" parent="1">
          <mxGeometry x="-63" y="-170" width="212.9" height="90" as="geometry">
            <mxRectangle x="550" y="140" width="160" height="26" as="alternateBounds" />
          </mxGeometry>
        </mxCell>
        <mxCell id="bkhA54zJ3EP0dmLcbxtn-29" value="- name: String" style="text;align=left;verticalAlign=top;spacingLeft=4;spacingRight=4;overflow=hidden;rotatable=0;points=[[0,0.5],[1,0.5]];portConstraint=eastwest;" vertex="1" parent="bkhA54zJ3EP0dmLcbxtn-28">
          <mxGeometry y="26" width="212.9" height="26" as="geometry" />
        </mxCell>
        <mxCell id="bkhA54zJ3EP0dmLcbxtn-30" value="" style="line;html=1;strokeWidth=1;align=left;verticalAlign=middle;spacingTop=-1;spacingLeft=3;spacingRight=3;rotatable=0;labelPosition=right;points=[];portConstraint=eastwest;" vertex="1" parent="bkhA54zJ3EP0dmLcbxtn-28">
          <mxGeometry y="52" width="212.9" height="8" as="geometry" />
        </mxCell>
        <mxCell id="bkhA54zJ3EP0dmLcbxtn-31" value="&lt;span style=&quot;color: rgb(0, 0, 0); font-family: Helvetica; font-size: 12px; font-style: normal; font-variant-ligatures: normal; font-variant-caps: normal; font-weight: 400; letter-spacing: normal; orphans: 2; text-align: left; text-indent: 0px; text-transform: none; widows: 2; word-spacing: 0px; -webkit-text-stroke-width: 0px; white-space: nowrap; background-color: rgb(251, 251, 251); text-decoration-thickness: initial; text-decoration-style: initial; text-decoration-color: initial; display: inline !important; float: none;&quot;&gt;+ accessors&lt;/span&gt;" style="text;whiteSpace=wrap;html=1;" vertex="1" parent="bkhA54zJ3EP0dmLcbxtn-28">
          <mxGeometry y="60" width="212.9" height="20" as="geometry" />
        </mxCell>
        <mxCell id="bkhA54zJ3EP0dmLcbxtn-32" value="" style="resizable=0;align=right;verticalAlign=bottom;labelBackgroundColor=none;fontSize=12;" connectable="0" vertex="1" parent="1">
          <mxGeometry x="164.9" y="-123" as="geometry" />
        </mxCell>
        <mxCell id="bkhA54zJ3EP0dmLcbxtn-33" value="- rolesApplicable" style="text;align=left;verticalAlign=top;spacingLeft=4;spacingRight=4;overflow=hidden;rotatable=0;points=[[0,0.5],[1,0.5]];portConstraint=eastwest;rounded=0;shadow=0;html=0;" vertex="1" parent="1">
          <mxGeometry x="159.89999999999998" y="-110" width="140" height="30" as="geometry" />
        </mxCell>
        <mxCell id="bkhA54zJ3EP0dmLcbxtn-34" value="BaseEntity" style="swimlane;fontStyle=2;align=center;verticalAlign=top;childLayout=stackLayout;horizontal=1;startSize=26;horizontalStack=0;resizeParent=1;resizeLast=0;collapsible=1;marginBottom=0;rounded=0;shadow=0;strokeWidth=1;" vertex="1" parent="1">
          <mxGeometry x="420" y="-510" width="270" height="164" as="geometry">
            <mxRectangle x="150" y="120" width="160" height="26" as="alternateBounds" />
          </mxGeometry>
        </mxCell>
        <mxCell id="bkhA54zJ3EP0dmLcbxtn-35" value="- id: String" style="text;align=left;verticalAlign=top;spacingLeft=4;spacingRight=4;overflow=hidden;rotatable=0;points=[[0,0.5],[1,0.5]];portConstraint=eastwest;" vertex="1" parent="bkhA54zJ3EP0dmLcbxtn-34">
          <mxGeometry y="26" width="270" height="18" as="geometry" />
        </mxCell>
        <mxCell id="bkhA54zJ3EP0dmLcbxtn-36" value="- createDate: LocalDateTime" style="text;align=left;verticalAlign=top;spacingLeft=4;spacingRight=4;overflow=hidden;rotatable=0;points=[[0,0.5],[1,0.5]];portConstraint=eastwest;rounded=0;shadow=0;html=0;" vertex="1" parent="bkhA54zJ3EP0dmLcbxtn-34">
          <mxGeometry y="44" width="270" height="18" as="geometry" />
        </mxCell>
        <mxCell id="bkhA54zJ3EP0dmLcbxtn-37" value="- lastModifiedDate: LocalDateTime" style="text;align=left;verticalAlign=top;spacingLeft=4;spacingRight=4;overflow=hidden;rotatable=0;points=[[0,0.5],[1,0.5]];portConstraint=eastwest;rounded=0;shadow=0;html=0;" vertex="1" parent="bkhA54zJ3EP0dmLcbxtn-34">
          <mxGeometry y="62" width="270" height="18" as="geometry" />
        </mxCell>
        <mxCell id="bkhA54zJ3EP0dmLcbxtn-38" value="- createdByUser: String" style="text;align=left;verticalAlign=top;spacingLeft=4;spacingRight=4;overflow=hidden;rotatable=0;points=[[0,0.5],[1,0.5]];portConstraint=eastwest;" vertex="1" parent="bkhA54zJ3EP0dmLcbxtn-34">
          <mxGeometry y="80" width="270" height="20" as="geometry" />
        </mxCell>
        <mxCell id="bkhA54zJ3EP0dmLcbxtn-39" value="- modifiedByUser: String" style="text;align=left;verticalAlign=top;spacingLeft=4;spacingRight=4;overflow=hidden;rotatable=0;points=[[0,0.5],[1,0.5]];portConstraint=eastwest;rounded=0;shadow=0;html=0;" vertex="1" parent="bkhA54zJ3EP0dmLcbxtn-34">
          <mxGeometry y="100" width="270" height="20" as="geometry" />
        </mxCell>
        <mxCell id="bkhA54zJ3EP0dmLcbxtn-40" value="" style="line;html=1;strokeWidth=1;align=left;verticalAlign=middle;spacingTop=-1;spacingLeft=3;spacingRight=3;rotatable=0;labelPosition=right;points=[];portConstraint=eastwest;" vertex="1" parent="bkhA54zJ3EP0dmLcbxtn-34">
          <mxGeometry y="120" width="270" height="16" as="geometry" />
        </mxCell>
        <mxCell id="bkhA54zJ3EP0dmLcbxtn-41" value="&lt;span style=&quot;color: rgb(0, 0, 0); font-family: Helvetica; font-size: 12px; font-style: normal; font-variant-ligatures: normal; font-variant-caps: normal; font-weight: 400; letter-spacing: normal; orphans: 2; text-align: left; text-indent: 0px; text-transform: none; widows: 2; word-spacing: 0px; -webkit-text-stroke-width: 0px; white-space: nowrap; background-color: rgb(251, 251, 251); text-decoration-thickness: initial; text-decoration-style: initial; text-decoration-color: initial; display: inline !important; float: none;&quot;&gt;+ accessors&lt;/span&gt;" style="text;whiteSpace=wrap;html=1;" vertex="1" parent="bkhA54zJ3EP0dmLcbxtn-34">
          <mxGeometry y="136" width="270" height="28" as="geometry" />
        </mxCell>
        <mxCell id="bkhA54zJ3EP0dmLcbxtn-42" value="" style="endArrow=none;html=1;rounded=0;exitX=0.531;exitY=-0.05;exitDx=0;exitDy=0;exitPerimeter=0;" edge="1" parent="1" source="bkhA54zJ3EP0dmLcbxtn-24">
          <mxGeometry width="50" height="50" relative="1" as="geometry">
            <mxPoint x="730" y="154.01" as="sourcePoint" />
            <mxPoint x="510" y="74.00999999999999" as="targetPoint" />
            <Array as="points">
              <mxPoint x="760" y="74" />
            </Array>
          </mxGeometry>
        </mxCell>
        <mxCell id="bkhA54zJ3EP0dmLcbxtn-43" value="" style="endArrow=block;endSize=10;endFill=0;shadow=0;strokeWidth=1;rounded=0;curved=0;edgeStyle=elbowEdgeStyle;elbow=vertical;exitX=0.5;exitY=0;exitDx=0;exitDy=0;" edge="1" parent="1">
          <mxGeometry width="160" relative="1" as="geometry">
            <mxPoint x="40" y="-170" as="sourcePoint" />
            <mxPoint x="550" y="-340" as="targetPoint" />
            <Array as="points">
              <mxPoint x="290" y="-250" />
            </Array>
          </mxGeometry>
        </mxCell>
        <mxCell id="bkhA54zJ3EP0dmLcbxtn-44" value="" style="endArrow=none;html=1;rounded=0;" edge="1" parent="1">
          <mxGeometry width="50" height="50" relative="1" as="geometry">
            <mxPoint x="550" y="-220" as="sourcePoint" />
            <mxPoint x="550" y="-270" as="targetPoint" />
            <Array as="points">
              <mxPoint x="550" y="-250" />
            </Array>
          </mxGeometry>
        </mxCell>
        <mxCell id="bkhA54zJ3EP0dmLcbxtn-45" value="" style="endArrow=none;html=1;rounded=0;entryX=0.5;entryY=0;entryDx=0;entryDy=0;" edge="1" parent="1" target="bkhA54zJ3EP0dmLcbxtn-13">
          <mxGeometry width="50" height="50" relative="1" as="geometry">
            <mxPoint x="550" y="-250" as="sourcePoint" />
            <mxPoint x="560" y="-260" as="targetPoint" />
            <Array as="points">
              <mxPoint x="1013" y="-250" />
            </Array>
          </mxGeometry>
        </mxCell>
        <mxCell id="bkhA54zJ3EP0dmLcbxtn-46" value="&lt;span style=&quot;color: rgb(0, 0, 0); font-family: Helvetica; font-size: 12px; font-style: normal; font-variant-ligatures: normal; font-variant-caps: normal; font-weight: 400; letter-spacing: normal; orphans: 2; text-align: right; text-indent: 0px; text-transform: none; widows: 2; word-spacing: 0px; -webkit-text-stroke-width: 0px; white-space: nowrap; background-color: rgb(251, 251, 251); text-decoration-thickness: initial; text-decoration-style: initial; text-decoration-color: initial; display: inline !important; float: none;&quot;&gt;*&lt;/span&gt;" style="text;whiteSpace=wrap;html=1;" vertex="1" parent="1">
          <mxGeometry x="170" y="-150" width="40" height="40" as="geometry" />
        </mxCell>
        <mxCell id="bkhA54zJ3EP0dmLcbxtn-47" value="&lt;font style=&quot;font-size: 36px;&quot;&gt;Domain&lt;/font&gt;" style="text;html=1;align=center;verticalAlign=middle;resizable=0;points=[];autosize=1;strokeColor=none;fillColor=#B3B3B3;" vertex="1" parent="1">
          <mxGeometry x="-430" y="-580" width="150" height="60" as="geometry" />
        </mxCell>
        <mxCell id="bkhA54zJ3EP0dmLcbxtn-48" value="1" style="endArrow=open;html=1;endSize=12;startArrow=diamondThin;startSize=14;startFill=0;edgeStyle=orthogonalEdgeStyle;align=left;verticalAlign=bottom;rounded=0;exitX=-0.003;exitY=0.816;exitDx=0;exitDy=0;exitPerimeter=0;entryX=0.997;entryY=0.782;entryDx=0;entryDy=0;entryPerimeter=0;" edge="1" parent="1" source="bkhA54zJ3EP0dmLcbxtn-7" target="bkhA54zJ3EP0dmLcbxtn-29">
          <mxGeometry x="-0.7761" y="-6" relative="1" as="geometry">
            <mxPoint x="210" y="-190" as="sourcePoint" />
            <mxPoint x="370" y="-190" as="targetPoint" />
            <mxPoint as="offset" />
          </mxGeometry>
        </mxCell>
        <mxCell id="bkhA54zJ3EP0dmLcbxtn-49" value="&lt;span style=&quot;color: rgb(0, 0, 0); font-family: Helvetica; font-size: 12px; font-style: normal; font-variant-ligatures: normal; font-variant-caps: normal; font-weight: 400; letter-spacing: normal; orphans: 2; text-align: right; text-indent: 0px; text-transform: none; widows: 2; word-spacing: 0px; -webkit-text-stroke-width: 0px; white-space: nowrap; background-color: rgb(251, 251, 251); text-decoration-thickness: initial; text-decoration-style: initial; text-decoration-color: initial; display: inline !important; float: none;&quot;&gt;*&lt;/span&gt;" style="text;whiteSpace=wrap;html=1;" vertex="1" parent="1">
          <mxGeometry x="860" y="-150" width="40" height="18" as="geometry" />
        </mxCell>
        <mxCell id="bkhA54zJ3EP0dmLcbxtn-50" value="1" style="endArrow=open;html=1;endSize=12;startArrow=diamondThin;startSize=14;startFill=0;edgeStyle=orthogonalEdgeStyle;align=left;verticalAlign=bottom;rounded=0;" edge="1" parent="1">
          <mxGeometry x="-0.7349" relative="1" as="geometry">
            <mxPoint x="710" y="-124.22" as="sourcePoint" />
            <mxPoint x="907" y="-124.5" as="targetPoint" />
            <mxPoint as="offset" />
            <Array as="points">
              <mxPoint x="845" y="-124.5" />
              <mxPoint x="845" y="-124.5" />
            </Array>
          </mxGeometry>
        </mxCell>
        <mxCell id="bkhA54zJ3EP0dmLcbxtn-51" value="Product" style="swimlane;fontStyle=0;align=center;verticalAlign=top;childLayout=stackLayout;horizontal=1;startSize=26;horizontalStack=0;resizeParent=1;resizeLast=0;collapsible=1;marginBottom=0;rounded=0;shadow=0;strokeWidth=1;" vertex="1" parent="1">
          <mxGeometry x="1152.1" y="-355" width="212.9" height="140" as="geometry">
            <mxRectangle x="550" y="140" width="160" height="26" as="alternateBounds" />
          </mxGeometry>
        </mxCell>
        <mxCell id="bkhA54zJ3EP0dmLcbxtn-52" value="- name: String" style="text;align=left;verticalAlign=top;spacingLeft=4;spacingRight=4;overflow=hidden;rotatable=0;points=[[0,0.5],[1,0.5]];portConstraint=eastwest;" vertex="1" parent="bkhA54zJ3EP0dmLcbxtn-51">
          <mxGeometry y="26" width="212.9" height="26" as="geometry" />
        </mxCell>
        <mxCell id="bkhA54zJ3EP0dmLcbxtn-53" value="- category: Category" style="text;align=left;verticalAlign=top;spacingLeft=4;spacingRight=4;overflow=hidden;rotatable=0;points=[[0,0.5],[1,0.5]];portConstraint=eastwest;" vertex="1" parent="bkhA54zJ3EP0dmLcbxtn-51">
          <mxGeometry y="52" width="212.9" height="26" as="geometry" />
        </mxCell>
        <mxCell id="bkhA54zJ3EP0dmLcbxtn-54" value="- price: Double" style="text;align=left;verticalAlign=top;spacingLeft=4;spacingRight=4;overflow=hidden;rotatable=0;points=[[0,0.5],[1,0.5]];portConstraint=eastwest;" vertex="1" parent="bkhA54zJ3EP0dmLcbxtn-51">
          <mxGeometry y="78" width="212.9" height="26" as="geometry" />
        </mxCell>
        <mxCell id="bkhA54zJ3EP0dmLcbxtn-55" value="" style="line;html=1;strokeWidth=1;align=left;verticalAlign=middle;spacingTop=-1;spacingLeft=3;spacingRight=3;rotatable=0;labelPosition=right;points=[];portConstraint=eastwest;" vertex="1" parent="bkhA54zJ3EP0dmLcbxtn-51">
          <mxGeometry y="104" width="212.9" height="8" as="geometry" />
        </mxCell>
        <mxCell id="bkhA54zJ3EP0dmLcbxtn-56" value="&lt;span style=&quot;color: rgb(0, 0, 0); font-family: Helvetica; font-size: 12px; font-style: normal; font-variant-ligatures: normal; font-variant-caps: normal; font-weight: 400; letter-spacing: normal; orphans: 2; text-align: left; text-indent: 0px; text-transform: none; widows: 2; word-spacing: 0px; -webkit-text-stroke-width: 0px; white-space: nowrap; background-color: rgb(251, 251, 251); text-decoration-thickness: initial; text-decoration-style: initial; text-decoration-color: initial; display: inline !important; float: none;&quot;&gt;+ accessors&lt;/span&gt;" style="text;whiteSpace=wrap;html=1;" vertex="1" parent="bkhA54zJ3EP0dmLcbxtn-51">
          <mxGeometry y="112" width="212.9" height="28" as="geometry" />
        </mxCell>
        <mxCell id="bkhA54zJ3EP0dmLcbxtn-57" value="" style="endArrow=open;html=1;endSize=12;startArrow=diamondThin;startSize=14;startFill=1;edgeStyle=orthogonalEdgeStyle;align=left;verticalAlign=bottom;rounded=0;exitX=0.5;exitY=1;exitDx=0;exitDy=0;entryX=0.5;entryY=1;entryDx=0;entryDy=0;" edge="1" parent="1" target="bkhA54zJ3EP0dmLcbxtn-56">
          <mxGeometry x="-0.6928" y="-8" relative="1" as="geometry">
            <mxPoint x="1119.9" y="-125.24000000000001" as="sourcePoint" />
            <mxPoint x="1279.58" y="-125.52599999999956" as="targetPoint" />
            <Array as="points">
              <mxPoint x="1258" y="-125" />
              <mxPoint x="1258" y="-175" />
            </Array>
            <mxPoint as="offset" />
          </mxGeometry>
        </mxCell>
        <mxCell id="bkhA54zJ3EP0dmLcbxtn-58" value="&lt;span style=&quot;color: rgb(0, 0, 0); font-family: Helvetica; font-size: 11px; font-style: normal; font-variant-ligatures: normal; font-variant-caps: normal; font-weight: 400; letter-spacing: normal; orphans: 2; text-align: left; text-indent: 0px; text-transform: none; widows: 2; word-spacing: 0px; -webkit-text-stroke-width: 0px; white-space: nowrap; background-color: rgb(255, 255, 255); text-decoration-thickness: initial; text-decoration-style: initial; text-decoration-color: initial; display: inline !important; float: none;&quot;&gt;1&lt;/span&gt;" style="text;whiteSpace=wrap;html=1;" vertex="1" parent="1">
          <mxGeometry x="1145" y="-156" width="75" height="30" as="geometry" />
        </mxCell>
        <mxCell id="bkhA54zJ3EP0dmLcbxtn-59" value="&lt;span style=&quot;color: rgb(0, 0, 0); font-family: Helvetica; font-size: 12px; font-style: normal; font-variant-ligatures: normal; font-variant-caps: normal; font-weight: 400; letter-spacing: normal; orphans: 2; text-align: right; text-indent: 0px; text-transform: none; widows: 2; word-spacing: 0px; -webkit-text-stroke-width: 0px; white-space: nowrap; background-color: rgb(251, 251, 251); text-decoration-thickness: initial; text-decoration-style: initial; text-decoration-color: initial; display: inline !important; float: none;&quot;&gt;*&lt;/span&gt;" style="text;whiteSpace=wrap;html=1;" vertex="1" parent="1">
          <mxGeometry x="1235" y="-188" width="40" height="18" as="geometry" />
        </mxCell>
        <mxCell id="bkhA54zJ3EP0dmLcbxtn-60" value="" style="endArrow=block;endSize=10;endFill=0;shadow=0;strokeWidth=1;rounded=0;curved=0;edgeStyle=elbowEdgeStyle;elbow=vertical;entryX=1;entryY=0.5;entryDx=0;entryDy=0;" edge="1" parent="1" source="bkhA54zJ3EP0dmLcbxtn-51" target="bkhA54zJ3EP0dmLcbxtn-38">
          <mxGeometry width="160" relative="1" as="geometry">
            <mxPoint x="725" y="-340" as="sourcePoint" />
            <mxPoint x="710" y="-420" as="targetPoint" />
            <Array as="points">
              <mxPoint x="905" y="-420" />
              <mxPoint x="975" y="-420" />
            </Array>
          </mxGeometry>
        </mxCell>
        <mxCell id="bkhA54zJ3EP0dmLcbxtn-61" value="BillItem" style="swimlane;fontStyle=2;align=center;verticalAlign=top;childLayout=stackLayout;horizontal=1;startSize=26;horizontalStack=0;resizeParent=1;resizeLast=0;collapsible=1;marginBottom=0;rounded=0;shadow=0;strokeWidth=1;" vertex="1" parent="1">
          <mxGeometry x="-370" y="-145" width="270" height="106" as="geometry">
            <mxRectangle x="150" y="120" width="160" height="26" as="alternateBounds" />
          </mxGeometry>
        </mxCell>
        <mxCell id="bkhA54zJ3EP0dmLcbxtn-62" value="- product: Product" style="text;align=left;verticalAlign=top;spacingLeft=4;spacingRight=4;overflow=hidden;rotatable=0;points=[[0,0.5],[1,0.5]];portConstraint=eastwest;" vertex="1" parent="bkhA54zJ3EP0dmLcbxtn-61">
          <mxGeometry y="26" width="270" height="18" as="geometry" />
        </mxCell>
        <mxCell id="bkhA54zJ3EP0dmLcbxtn-63" value="- quantity: Integer" style="text;align=left;verticalAlign=top;spacingLeft=4;spacingRight=4;overflow=hidden;rotatable=0;points=[[0,0.5],[1,0.5]];portConstraint=eastwest;rounded=0;shadow=0;html=0;" vertex="1" parent="bkhA54zJ3EP0dmLcbxtn-61">
          <mxGeometry y="44" width="270" height="18" as="geometry" />
        </mxCell>
        <mxCell id="bkhA54zJ3EP0dmLcbxtn-64" value="" style="line;html=1;strokeWidth=1;align=left;verticalAlign=middle;spacingTop=-1;spacingLeft=3;spacingRight=3;rotatable=0;labelPosition=right;points=[];portConstraint=eastwest;" vertex="1" parent="bkhA54zJ3EP0dmLcbxtn-61">
          <mxGeometry y="62" width="270" height="16" as="geometry" />
        </mxCell>
        <mxCell id="bkhA54zJ3EP0dmLcbxtn-65" value="&lt;span style=&quot;color: rgb(0, 0, 0); font-family: Helvetica; font-size: 12px; font-style: normal; font-variant-ligatures: normal; font-variant-caps: normal; font-weight: 400; letter-spacing: normal; orphans: 2; text-align: left; text-indent: 0px; text-transform: none; widows: 2; word-spacing: 0px; -webkit-text-stroke-width: 0px; white-space: nowrap; background-color: rgb(251, 251, 251); text-decoration-thickness: initial; text-decoration-style: initial; text-decoration-color: initial; display: inline !important; float: none;&quot;&gt;+ accessors&lt;/span&gt;" style="text;whiteSpace=wrap;html=1;" vertex="1" parent="bkhA54zJ3EP0dmLcbxtn-61">
          <mxGeometry y="78" width="270" height="28" as="geometry" />
        </mxCell>
        <mxCell id="bkhA54zJ3EP0dmLcbxtn-66" value="- billItemList" style="text;align=left;verticalAlign=top;spacingLeft=4;spacingRight=4;overflow=hidden;rotatable=0;points=[[0,0.5],[1,0.5]];portConstraint=eastwest;rounded=0;shadow=0;html=0;" vertex="1" parent="1">
          <mxGeometry x="-220" y="-200" width="170" height="30" as="geometry" />
        </mxCell>
        <mxCell id="bkhA54zJ3EP0dmLcbxtn-67" value="1" style="endArrow=open;html=1;endSize=12;startArrow=diamondThin;startSize=14;startFill=1;edgeStyle=orthogonalEdgeStyle;align=left;verticalAlign=bottom;rounded=0;exitX=0.5;exitY=1;exitDx=0;exitDy=0;entryX=0.5;entryY=0;entryDx=0;entryDy=0;" edge="1" parent="1" source="bkhA54zJ3EP0dmLcbxtn-78" target="bkhA54zJ3EP0dmLcbxtn-61">
          <mxGeometry x="-0.7427" y="-30" relative="1" as="geometry">
            <mxPoint x="159.67999999999984" y="-392.29599999999954" as="sourcePoint" />
            <mxPoint y="-392.01" as="targetPoint" />
            <Array as="points">
              <mxPoint x="-235" y="-280" />
              <mxPoint x="-235" y="-280" />
            </Array>
            <mxPoint as="offset" />
          </mxGeometry>
        </mxCell>
        <mxCell id="bkhA54zJ3EP0dmLcbxtn-68" value="Bill" style="swimlane;fontStyle=2;align=center;verticalAlign=top;childLayout=stackLayout;horizontal=1;startSize=26;horizontalStack=0;resizeParent=1;resizeLast=0;collapsible=1;marginBottom=0;rounded=0;shadow=0;strokeWidth=1;" vertex="1" parent="1">
          <mxGeometry x="-370" y="-505" width="270" height="222" as="geometry">
            <mxRectangle x="150" y="120" width="160" height="26" as="alternateBounds" />
          </mxGeometry>
        </mxCell>
        <mxCell id="bkhA54zJ3EP0dmLcbxtn-69" value="- billItemList: List&lt;BillItem&gt;" style="text;align=left;verticalAlign=top;spacingLeft=4;spacingRight=4;overflow=hidden;rotatable=0;points=[[0,0.5],[1,0.5]];portConstraint=eastwest;" vertex="1" parent="bkhA54zJ3EP0dmLcbxtn-68">
          <mxGeometry y="26" width="270" height="18" as="geometry" />
        </mxCell>
        <mxCell id="bkhA54zJ3EP0dmLcbxtn-70" value="- totalBeforeDiscount: Double" style="text;align=left;verticalAlign=top;spacingLeft=4;spacingRight=4;overflow=hidden;rotatable=0;points=[[0,0.5],[1,0.5]];portConstraint=eastwest;rounded=0;shadow=0;html=0;" vertex="1" parent="bkhA54zJ3EP0dmLcbxtn-68">
          <mxGeometry y="44" width="270" height="18" as="geometry" />
        </mxCell>
        <mxCell id="bkhA54zJ3EP0dmLcbxtn-71" value="- totalAfterDiscount: Double" style="text;align=left;verticalAlign=top;spacingLeft=4;spacingRight=4;overflow=hidden;rotatable=0;points=[[0,0.5],[1,0.5]];portConstraint=eastwest;rounded=0;shadow=0;html=0;" vertex="1" parent="bkhA54zJ3EP0dmLcbxtn-68">
          <mxGeometry y="62" width="270" height="18" as="geometry" />
        </mxCell>
        <mxCell id="bkhA54zJ3EP0dmLcbxtn-72" value="- discountType: Enum" style="text;align=left;verticalAlign=top;spacingLeft=4;spacingRight=4;overflow=hidden;rotatable=0;points=[[0,0.5],[1,0.5]];portConstraint=eastwest;" vertex="1" parent="bkhA54zJ3EP0dmLcbxtn-68">
          <mxGeometry y="80" width="270" height="20" as="geometry" />
        </mxCell>
        <mxCell id="bkhA54zJ3EP0dmLcbxtn-73" value="- discountDescription: String" style="text;align=left;verticalAlign=top;spacingLeft=4;spacingRight=4;overflow=hidden;rotatable=0;points=[[0,0.5],[1,0.5]];portConstraint=eastwest;rounded=0;shadow=0;html=0;" vertex="1" parent="bkhA54zJ3EP0dmLcbxtn-68">
          <mxGeometry y="100" width="270" height="20" as="geometry" />
        </mxCell>
        <mxCell id="bkhA54zJ3EP0dmLcbxtn-74" value="- discountAmount: Double" style="text;align=left;verticalAlign=top;spacingLeft=4;spacingRight=4;overflow=hidden;rotatable=0;points=[[0,0.5],[1,0.5]];portConstraint=eastwest;rounded=0;shadow=0;html=0;" vertex="1" parent="bkhA54zJ3EP0dmLcbxtn-68">
          <mxGeometry y="120" width="270" height="20" as="geometry" />
        </mxCell>
        <mxCell id="bkhA54zJ3EP0dmLcbxtn-75" value="- discountRate: Double" style="text;align=left;verticalAlign=top;spacingLeft=4;spacingRight=4;overflow=hidden;rotatable=0;points=[[0,0.5],[1,0.5]];portConstraint=eastwest;rounded=0;shadow=0;html=0;" vertex="1" parent="bkhA54zJ3EP0dmLcbxtn-68">
          <mxGeometry y="140" width="270" height="20" as="geometry" />
        </mxCell>
        <mxCell id="bkhA54zJ3EP0dmLcbxtn-76" value="- userEmail: String" style="text;align=left;verticalAlign=top;spacingLeft=4;spacingRight=4;overflow=hidden;rotatable=0;points=[[0,0.5],[1,0.5]];portConstraint=eastwest;" vertex="1" parent="bkhA54zJ3EP0dmLcbxtn-68">
          <mxGeometry y="160" width="270" height="18" as="geometry" />
        </mxCell>
        <mxCell id="bkhA54zJ3EP0dmLcbxtn-77" value="" style="line;html=1;strokeWidth=1;align=left;verticalAlign=middle;spacingTop=-1;spacingLeft=3;spacingRight=3;rotatable=0;labelPosition=right;points=[];portConstraint=eastwest;" vertex="1" parent="bkhA54zJ3EP0dmLcbxtn-68">
          <mxGeometry y="178" width="270" height="16" as="geometry" />
        </mxCell>
        <mxCell id="bkhA54zJ3EP0dmLcbxtn-78" value="&lt;span style=&quot;color: rgb(0, 0, 0); font-family: Helvetica; font-size: 12px; font-style: normal; font-variant-ligatures: normal; font-variant-caps: normal; font-weight: 400; letter-spacing: normal; orphans: 2; text-align: left; text-indent: 0px; text-transform: none; widows: 2; word-spacing: 0px; -webkit-text-stroke-width: 0px; white-space: nowrap; background-color: rgb(251, 251, 251); text-decoration-thickness: initial; text-decoration-style: initial; text-decoration-color: initial; display: inline !important; float: none;&quot;&gt;+ accessors&lt;/span&gt;" style="text;whiteSpace=wrap;html=1;" vertex="1" parent="bkhA54zJ3EP0dmLcbxtn-68">
          <mxGeometry y="194" width="270" height="28" as="geometry" />
        </mxCell>
        <mxCell id="bkhA54zJ3EP0dmLcbxtn-79" value="&lt;span style=&quot;color: rgb(0, 0, 0); font-family: Helvetica; font-size: 12px; font-style: normal; font-variant-ligatures: normal; font-variant-caps: normal; font-weight: 400; letter-spacing: normal; orphans: 2; text-align: right; text-indent: 0px; text-transform: none; widows: 2; word-spacing: 0px; -webkit-text-stroke-width: 0px; white-space: nowrap; background-color: rgb(251, 251, 251); text-decoration-thickness: initial; text-decoration-style: initial; text-decoration-color: initial; display: inline !important; float: none;&quot;&gt;1..*&lt;/span&gt;" style="text;whiteSpace=wrap;html=1;" vertex="1" parent="1">
          <mxGeometry x="-280" y="-199" width="40" height="40" as="geometry" />
        </mxCell>
        <mxCell id="bkhA54zJ3EP0dmLcbxtn-80" value="" style="endArrow=block;endSize=10;endFill=0;shadow=0;strokeWidth=1;rounded=0;curved=0;edgeStyle=elbowEdgeStyle;elbow=vertical;entryX=0.002;entryY=0.025;entryDx=0;entryDy=0;entryPerimeter=0;exitX=1;exitY=0.5;exitDx=0;exitDy=0;" edge="1" parent="1">
          <mxGeometry width="160" relative="1" as="geometry">
            <mxPoint x="-100" y="-425.25" as="sourcePoint" />
            <mxPoint x="420.53999999999996" y="-420.75" as="targetPoint" />
            <Array as="points">
              <mxPoint x="43.94999999999999" y="-421.25" />
              <mxPoint x="-26.05000000000001" y="-421.25" />
            </Array>
          </mxGeometry>
        </mxCell>
        <mxCell id="bkhA54zJ3EP0dmLcbxtn-81" value="1" style="endArrow=open;html=1;endSize=12;startArrow=diamondThin;startSize=14;startFill=0;edgeStyle=orthogonalEdgeStyle;align=left;verticalAlign=bottom;rounded=0;exitX=0.5;exitY=1;exitDx=0;exitDy=0;entryX=0.5;entryY=1;entryDx=0;entryDy=0;" edge="1" parent="1" source="bkhA54zJ3EP0dmLcbxtn-65" target="bkhA54zJ3EP0dmLcbxtn-56">
          <mxGeometry x="-0.9631" y="15" relative="1" as="geometry">
            <mxPoint x="-280" y="80.27999999999997" as="sourcePoint" />
            <mxPoint x="-83" y="80" as="targetPoint" />
            <mxPoint as="offset" />
            <Array as="points">
              <mxPoint x="-235" y="320" />
              <mxPoint x="1259" y="320" />
            </Array>
          </mxGeometry>
        </mxCell>
        <mxCell id="bkhA54zJ3EP0dmLcbxtn-82" value="&lt;span style=&quot;color: rgb(0, 0, 0); font-family: Helvetica; font-size: 11px; font-style: normal; font-variant-ligatures: normal; font-variant-caps: normal; font-weight: 400; letter-spacing: normal; orphans: 2; text-align: left; text-indent: 0px; text-transform: none; widows: 2; word-spacing: 0px; -webkit-text-stroke-width: 0px; white-space: nowrap; background-color: rgb(255, 255, 255); text-decoration-thickness: initial; text-decoration-style: initial; text-decoration-color: initial; display: inline !important; float: none;&quot;&gt;1&lt;/span&gt;" style="text;whiteSpace=wrap;html=1;" vertex="1" parent="1">
          <mxGeometry x="1265" y="-100" width="75" height="30" as="geometry" />
        </mxCell>
        <mxCell id="bkhA54zJ3EP0dmLcbxtn-83" value="- product" style="text;align=left;verticalAlign=top;spacingLeft=4;spacingRight=4;overflow=hidden;rotatable=0;points=[[0,0.5],[1,0.5]];portConstraint=eastwest;rounded=0;shadow=0;html=0;" vertex="1" parent="1">
          <mxGeometry x="1265" y="-69" width="140" height="30" as="geometry" />
        </mxCell>
      </root>
    </mxGraphModel>
  </diagram>
</mxfile>
